<?xml version="1.0" encoding="UTF-8" standalone="no"?>
<!-- Created with Inkscape (http://www.inkscape.org/) -->

<svg
   width="155.83438mm"
   height="193.54588mm"
   viewBox="0 0 155.83438 193.54588"
   version="1.1"
   id="svg1"
   inkscape:version="1.3 (0e150ed6c4, 2023-07-21)"
   sodipodi:docname="supraIconsMapSW.svg"
   xml:space="preserve"
   xmlns:inkscape="http://www.inkscape.org/namespaces/inkscape"
   xmlns:sodipodi="http://sodipodi.sourceforge.net/DTD/sodipodi-0.dtd"
   xmlns:xlink="http://www.w3.org/1999/xlink"
   xmlns="http://www.w3.org/2000/svg"
   xmlns:svg="http://www.w3.org/2000/svg"><sodipodi:namedview
     id="namedview1"
     pagecolor="#ffffff"
     bordercolor="#000000"
     borderopacity="0.25"
     inkscape:showpageshadow="2"
     inkscape:pageopacity="0.0"
     inkscape:pagecheckerboard="0"
     inkscape:deskcolor="#d1d1d1"
     inkscape:document-units="mm"
     inkscape:zoom="0.74742565"
     inkscape:cx="965.31341"
     inkscape:cy="272.26788"
     inkscape:window-width="1920"
     inkscape:window-height="1017"
     inkscape:window-x="-8"
     inkscape:window-y="-8"
     inkscape:window-maximized="1"
     inkscape:current-layer="layer1" /><defs
     id="defs1"><linearGradient
       id="linearGradient41"
       inkscape:collect="always"><stop
         style="stop-color:#ffeb03;stop-opacity:1;"
         offset="0"
         id="stop41" /><stop
         style="stop-color:#ff2203;stop-opacity:1;"
         offset="0"
         id="stop42" /></linearGradient><linearGradient
       inkscape:collect="always"
       xlink:href="#linearGradient41"
       id="linearGradient42"
       x1="187.616"
       y1="117.50554"
       x2="220.88385"
       y2="117.50554"
       gradientUnits="userSpaceOnUse"
       gradientTransform="translate(4.1301272,0.87608759)" /><linearGradient
       inkscape:collect="always"
       xlink:href="#linearGradient41"
       id="linearGradient44"
       gradientUnits="userSpaceOnUse"
       x1="187.616"
       y1="117.50554"
       x2="220.88385"
       y2="117.50554"
       gradientTransform="translate(1.7521752,2.0024859)" /></defs><g
     inkscape:label="Layer 1"
     inkscape:groupmode="layer"
     id="layer1"
     transform="translate(-229.79644,18.894597)"><path
       style="fill:#000000;fill-rule:evenodd;stroke:#000000;stroke-width:2.39;stroke-linecap:square;stroke-linejoin:round;stroke-miterlimit:10;paint-order:fill markers stroke"
       d="m 307.71364,173.45649 -20.80653,-52.66534 -55.91572,-63.718156 76.72225,-74.772639 76.72224,74.772639 -55.91571,63.718156 z"
       id="path36"
       sodipodi:nodetypes="ccccccc" /><g
       id="g36"
       transform="translate(115.40166,-81.418355)"><path
         style="fill:#ffeb03;fill-opacity:1;fill-rule:evenodd;stroke:#ddcc00;stroke-width:2.39;stroke-linecap:square;stroke-linejoin:round;stroke-miterlimit:10;stroke-dasharray:none;stroke-opacity:1;paint-order:fill markers stroke"
         d="m 155.75685,130.26937 -1.41597,38.23122 33.57748,10.69831 38.46006,-8.75135 0.70799,-39.6472 -37.70024,7.61085 z"
         id="path14"
         sodipodi:nodetypes="ccccccc" /><path
         style="fill:#ffeb03;fill-opacity:1;fill-rule:evenodd;stroke:#ddcc00;stroke-width:2.39;stroke-linecap:square;stroke-linejoin:round;stroke-miterlimit:10;stroke-dasharray:none;stroke-opacity:1;paint-order:fill markers stroke"
         d="m 150.32049,117.74972 -0.47025,11.07442 39.69387,9.87317 45.18662,-9.69617 0.14663,-10.24496 -44.96667,8.37499 z"
         id="path15"
         sodipodi:nodetypes="ccccccc" /><path
         style="fill:#ffeb03;fill-opacity:1;fill-rule:evenodd;stroke:#ddcc00;stroke-width:2.39;stroke-linecap:square;stroke-linejoin:round;stroke-miterlimit:10;stroke-dasharray:none;stroke-opacity:1;paint-order:fill markers stroke"
         d="m 150.93737,117.39573 39.95863,-4.4596 44.06986,5.80487 -45.14182,8.48756 z"
         id="path26"
         sodipodi:nodetypes="ccccc" /><path
         style="fill:#ff2203;fill-opacity:1;fill-rule:evenodd;stroke:#d51a00;stroke-width:2.39;stroke-linecap:square;stroke-linejoin:round;stroke-miterlimit:10;stroke-dasharray:none;stroke-opacity:1;paint-order:fill markers stroke"
         d="m 165.70571,172.08863 2.25279,-38.54785 9.2615,2.12764 -2.12764,39.17363 z"
         id="path27" /><path
         style="fill:#ff2203;fill-opacity:1;fill-rule:evenodd;stroke:#d51a00;stroke-width:2.39;stroke-linecap:square;stroke-linejoin:round;stroke-miterlimit:10;stroke-dasharray:none;stroke-opacity:1;paint-order:fill markers stroke"
         d="m 205.12965,135.66842 -0.37547,39.29878 10.3879,-2.12764 0.75093,-39.7994 z"
         id="path28" /><path
         style="fill:#ff2203;fill-opacity:1;fill-rule:evenodd;stroke:#d51a00;stroke-width:2.39;stroke-linecap:square;stroke-linejoin:round;stroke-miterlimit:10;stroke-dasharray:none;stroke-opacity:1;paint-order:fill markers stroke"
         d="m 166.73063,121.59654 -1.68147,11.15077 15.1332,3.71693 1.94696,-11.23927 z"
         id="path29" /><path
         style="fill:#ff2203;fill-opacity:1;fill-rule:evenodd;stroke:#d51a00;stroke-width:2.39;stroke-linecap:square;stroke-linejoin:round;stroke-miterlimit:10;stroke-dasharray:none;stroke-opacity:1;paint-order:fill markers stroke"
         d="m 218.7711,132.57569 -0.60653,-10.66404 -17.00814,3.13632 0.70799,11.15078 z"
         id="path30"
         sodipodi:nodetypes="ccccc" /><path
         style="fill:#ff2203;fill-opacity:1;fill-rule:evenodd;stroke:#d51a00;stroke-width:2.39;stroke-linecap:square;stroke-linejoin:round;stroke-miterlimit:10;stroke-dasharray:none;stroke-opacity:1;paint-order:fill markers stroke"
         d="m 166.81912,121.48591 38.60148,-6.65097 9.9398,1.31896 -33.15194,9.07597 z"
         id="path31"
         sodipodi:nodetypes="ccccc" /><path
         style="fill:#ff2203;fill-opacity:1;fill-rule:evenodd;stroke:#d51a00;stroke-width:2.39;stroke-linecap:square;stroke-linejoin:round;stroke-miterlimit:10;stroke-dasharray:none;stroke-opacity:1;paint-order:fill markers stroke"
         d="m 218.10383,121.90629 -37.39049,-7.8321 -11.94725,1.32748 32.41247,9.69055 z"
         id="path32"
         sodipodi:nodetypes="ccccc" /><path
         style="fill:url(#linearGradient42);fill-rule:evenodd;stroke:#d51a00;stroke-width:2.39;stroke-linecap:square;stroke-linejoin:round;stroke-miterlimit:10;stroke-dasharray:none;stroke-opacity:1;paint-order:fill markers stroke"
         d="m 192.94111,121.7869 c 0,0 4.36317,3.09908 22.34989,2.06506 3.35092,-0.19264 7.48781,-3.25821 6.94612,-6.57066 -0.61889,-3.78446 -3.10079,-3.96016 -6.52012,-4.13825 -15.00583,-0.78153 -22.77589,8.64385 -22.77589,8.64385 z"
         id="path38"
         sodipodi:nodetypes="csssc" /><path
         style="fill:#ff2203;fill-opacity:1;fill-rule:evenodd;stroke:#d51a00;stroke-width:2.39;stroke-linecap:square;stroke-linejoin:round;stroke-miterlimit:10;stroke-dasharray:none;stroke-opacity:1;paint-order:fill markers stroke"
         d="m 191.48816,116.97211 c 0,0 -3.40763,5.06608 -14.95607,1.27564 -2.88031,-0.94538 -13.30117,-8.89679 -11.29588,-11.17028 2.55238,-2.89376 13.00533,-3.08461 14.9987,0.21917 3.52507,5.8424 11.25325,9.67547 11.25325,9.67547 z"
         id="path43"
         sodipodi:nodetypes="csssc" /><path
         style="fill:#ff2203;fill-opacity:1;fill-rule:evenodd;stroke:#d51a00;stroke-width:2.39;stroke-linecap:square;stroke-linejoin:round;stroke-miterlimit:10;stroke-dasharray:none;stroke-opacity:1;paint-order:fill markers stroke"
         d="m 182.72684,119.27307 c 0,0 -7.70532,-0.44076 -15.05009,-3.34622 -2.81894,-1.11512 -4.53432,-6.39889 -2.52903,-8.67238 2.55238,-2.89376 7.65947,-1.04174 9.51181,2.34313 1.35687,2.47947 8.06731,9.67547 8.06731,9.67547 z"
         id="path42"
         sodipodi:nodetypes="csssc" /><path
         style="fill:url(#linearGradient44);fill-opacity:1;fill-rule:evenodd;stroke:#d51a00;stroke-width:2.39;stroke-linecap:square;stroke-linejoin:round;stroke-miterlimit:10;stroke-dasharray:none;stroke-opacity:1;paint-order:fill markers stroke"
         d="m 190.62574,121.7869 c 0,0 6.3809,1.52007 13.7095,2.40127 4.92944,0.59272 11.17677,-3.31079 10.18151,-6.21482 -1.29397,-3.77565 -8.59042,-4.58946 -12.36751,-2.49789 -5.8485,3.23862 -11.5235,6.31144 -11.5235,6.31144 z"
         id="path44"
         sodipodi:nodetypes="csssc" /></g></g></svg>
